<svg xmlns="http://www.w3.org/2000/svg" width="51" height="51" viewBox="0 0 51 51">
  <g id="Group_18" data-name="Group 18" transform="translate(-1115 -3725)">
    <circle id="Ellipse_7" data-name="Ellipse 7" cx="25.5" cy="25.5" r="25.5" transform="translate(1115 3725)" fill="#3b3e40"/>
    <path id="icons8_facebook" d="M15.255,2.007a13.706,13.706,0,0,0-1.591,27.252V19.348H11.451a1.8,1.8,0,0,1-1.8-1.8h0a1.8,1.8,0,0,1,1.8-1.8h2.212v-2.4c0-3.972,1.935-5.715,5.236-5.715.49,0,.908.011,1.263.029A1.636,1.636,0,0,1,21.71,9.3h0a1.645,1.645,0,0,1-1.646,1.646h-.606c-1.4,0-1.891,1.329-1.891,2.826v1.971h2.564a1.322,1.322,0,0,1,1.307,1.524l-.148.961a1.323,1.323,0,0,1-1.307,1.12H17.568v9.938A13.708,13.708,0,0,0,15.255,2.007Z" transform="translate(1125 3735)" fill="#fff"/>
  </g>
</svg>
