<svg xmlns="http://www.w3.org/2000/svg" width="50" height="51" viewBox="0 0 50 51">
  <g id="Group_19" data-name="Group 19" transform="translate(-1220 -3725)">
    <ellipse id="Ellipse_8" data-name="Ellipse 8" cx="25" cy="25.5" rx="25" ry="25.5" transform="translate(1220 3725)" fill="#3b3e40"/>
    <path id="icons8_instagram" d="M10.557,3A7.568,7.568,0,0,0,3,10.562v10.8a7.568,7.568,0,0,0,7.562,7.557h10.8a7.568,7.568,0,0,0,7.557-7.562v-10.8A7.568,7.568,0,0,0,21.356,3ZM23.518,7.32a1.08,1.08,0,1,1-1.08,1.08A1.08,1.08,0,0,1,23.518,7.32ZM15.959,9.48a6.48,6.48,0,1,1-6.479,6.48A6.486,6.486,0,0,1,15.959,9.48Zm0,2.16a4.32,4.32,0,1,0,4.32,4.32,4.32,4.32,0,0,0-4.32-4.32Z" transform="translate(1229 3735)" fill="#fff"/>
  </g>
</svg>
